<svg width="80" height="81" viewBox="0 0 80 81" fill="none" xmlns="http://www.w3.org/2000/svg">
<path d="M73.0864 45.5834L67.111 49.7534L69.5209 56.6834C70.8543 60.4934 67.9901 64.4734 63.9999 64.3734L56.7407 64.1834L54.6765 71.2234C53.5407 75.1034 48.9185 76.6234 45.7382 74.1634L39.9802 69.6934L34.2222 74.1634C31.0518 76.6234 26.4296 75.1034 25.2938 71.2234L23.2296 64.1834L15.9703 64.3734C11.9802 64.4734 9.12588 60.4934 10.4493 56.6834L12.8592 49.7534L6.8839 45.5834C3.59501 43.2934 3.59501 38.3734 6.8839 36.0834L12.8592 31.9134L10.4493 24.9834C9.116 21.1734 11.9802 17.1934 15.9703 17.2934L23.2296 17.4834L25.2938 10.4434C26.4296 6.56343 31.0518 5.04343 34.232 7.50343L39.9901 11.9734L45.7481 7.50343C48.9185 5.04343 53.5407 6.56343 54.6765 10.4434L56.7407 17.4834L63.9999 17.2934C67.9901 17.1934 70.8444 21.1734 69.5209 24.9834L67.111 31.9134L73.0864 36.0834C76.3753 38.3734 76.3753 43.2934 73.0864 45.5834Z" fill="#7E4BDE"/>
<path d="M49.8765 46.5734V50.5734H53.8271V46.5734H49.8765Z" fill="#252746"/>
<path d="M41.9753 26.8334V34.8334H45.926V26.8334H41.9753Z" fill="#252746"/>
<path d="M34.074 46.8334V54.8334H38.0246V46.8334H34.074Z" fill="#252746"/>
<path d="M53.8271 42.5734V46.5734H57.7778V42.5734H53.8271Z" fill="#252746"/>
<path d="M57.7778 38.5734V42.5734H61.7284V38.5734H57.7778Z" fill="#252746"/>
<path d="M53.8271 34.5734V38.5734H57.7778V34.5734H53.8271Z" fill="#252746"/>
<path d="M49.8765 30.5734V34.5734H53.8271V30.5734H49.8765Z" fill="#252746"/>
<path d="M38.0247 34.8334V46.8334H41.9753V34.8334H38.0247Z" fill="#252746"/>
<path d="M30.1235 34.8334V30.8334H26.1729V34.8334H30.1235Z" fill="#252746"/>
<path d="M26.1728 38.8334V34.8334H22.2222V38.8334H26.1728Z" fill="#252746"/>
<path d="M22.2221 42.8334V38.8334H18.2715V42.8334H22.2221Z" fill="#252746"/>
<path d="M26.1728 46.8334V42.8334H22.2222V46.8334H26.1728Z" fill="#252746"/>
<path d="M30.1235 50.8334V46.8334H26.1729V50.8334H30.1235Z" fill="#252746"/>
</svg>
