<svg width="80" height="81" viewBox="0 0 80 81" fill="none" xmlns="http://www.w3.org/2000/svg">
<path d="M40 75.8334C59.0914 75.8334 74.5679 60.1634 74.5679 40.8334C74.5679 21.5034 59.0914 5.83337 40 5.83337C20.9087 5.83337 5.43213 21.5034 5.43213 40.8334C5.43213 60.1634 20.9087 75.8334 40 75.8334Z" fill="#3890FA"/>
<path d="M57.7778 21.8334V25.8334H61.7284V21.8334H57.7778Z" fill="#252746"/>
<path d="M32.0988 9.83337V13.8334H28.1482V17.8334H20.2469V21.8334H16.2963V25.8334H12.3457V29.8334H20.2469V37.8334H24.1976V49.8334H28.1482V69.8334H32.0988V65.8334H36.0494V57.8334H40V53.8334H43.9506V49.8334H47.9013V45.8334H43.9506V41.8334H36.0494V37.8334H24.1976V29.8334H28.1482V25.8334H36.0494V17.8334H40V9.83337H32.0988Z" fill="#252746"/>
<path d="M53.8271 29.8334H65.6789V33.8334H69.6296V45.8334H65.6789V49.8334H61.7283V45.8334H57.7777V37.8334H49.8765V33.8334H53.8271V29.8334Z" fill="#252746"/>
</svg>
