<svg width="80" height="81" viewBox="0 0 80 81" fill="none" xmlns="http://www.w3.org/2000/svg">
<path d="M60.7408 14.8334C55.2297 14.8334 50.479 18.1034 48.2667 22.8334H31.7334C29.5111 18.1034 24.7704 14.8334 19.2593 14.8334C11.6247 14.8334 5.43213 21.1034 5.43213 28.8334V59.4134C5.43213 63.5134 8.71114 66.8334 12.7605 66.8334C15.5358 66.8334 18.0741 65.2434 19.3087 62.7334L24.1976 52.8334H55.8025L60.6914 62.7334C61.9358 65.2434 64.4642 66.8334 67.2395 66.8334C71.2889 66.8334 74.5679 63.5134 74.5679 59.4134V28.8334C74.5679 21.1034 68.3753 14.8334 60.7408 14.8334Z" fill="#FF7231"/>
<path d="M54.8147 26.8334V30.8334H58.7653V26.8334H54.8147Z" fill="#252746"/>
<path d="M62.7161 26.8334V30.8334H66.6667V26.8334H62.7161Z" fill="#252746"/>
<path d="M62.716 22.8334H58.7654V26.8334H62.716V22.8334Z" fill="#252746"/>
<path d="M62.716 30.8334H58.7654V34.8334H62.716V30.8334Z" fill="#252746"/>
<path d="M45.9258 40.8334H34.074V44.8334H45.9258V40.8334Z" fill="#252746"/>
<path d="M45.926 36.8334V40.8334H49.8766V36.8334H45.926Z" fill="#252746"/>
<path d="M30.1235 36.8334V40.8334H34.0742V36.8334H30.1235Z" fill="#252746"/>
<path d="M17.2839 22.8334V26.8334H13.3333V30.8334H17.2839V34.8334H21.2345V30.8334H25.1851V26.8334H21.2345V22.8334H17.2839Z" fill="#252746"/>
</svg>
