<svg width="23" height="49" viewBox="0 0 23 49" fill="none" xmlns="http://www.w3.org/2000/svg">
<path d="M10.3392 33.3334H9.09301C5.90634 33.3334 4.31345 33.3334 3.32323 32.3245C2.33301 31.3156 2.33301 29.6916 2.33301 26.4445C2.33301 23.1974 2.33301 21.5734 3.32323 20.5645C4.31345 19.5556 5.90634 19.5556 9.09301 19.5556H12.4735C15.6601 19.5556 17.2539 19.5556 18.2441 20.5645C19.0059 21.3405 19.181 22.4809 19.2219 24.4445V25.7778" stroke="#002B6B" stroke-width="1.33333" stroke-linecap="round" stroke-linejoin="round"/>
<path d="M17.4443 30.6667H14.7776M14.7776 33.3334C14.0703 33.3334 13.3921 33.0524 12.892 32.5523C12.3919 32.0522 12.1109 31.374 12.1109 30.6667C12.1109 29.9595 12.3919 29.2812 12.892 28.7811C13.3921 28.281 14.0703 28 14.7776 28M17.4443 33.3334C18.1515 33.3334 18.8298 33.0524 19.3299 32.5523C19.83 32.0522 20.1109 31.374 20.1109 30.6667C20.1109 29.9595 19.83 29.2812 19.3299 28.7811C18.8298 28.281 18.1515 28 17.4443 28M14.7776 19.5556L14.6887 19.28C14.2487 17.9112 14.0291 17.2267 13.5056 16.8356C12.9811 16.4445 12.286 16.4445 10.894 16.4445H10.6603C9.26914 16.4445 8.57314 16.4445 8.04959 16.8356C7.52514 17.2267 7.30559 17.9112 6.86559 19.28L6.77759 19.5556" stroke="#002B6B" stroke-width="1.33333" stroke-linecap="round" stroke-linejoin="round"/>
</svg>
