<svg width="80" height="81" viewBox="0 0 80 81" fill="none" xmlns="http://www.w3.org/2000/svg">
<path d="M73.5802 13.8334H62.716V10.8334C62.716 8.62337 60.9481 6.83337 58.7654 6.83337H21.2346C19.0518 6.83337 17.2839 8.62337 17.2839 10.8334V13.8334H6.41975C4.78024 13.8334 3.45679 15.1734 3.45679 16.8334V28.8334C3.45679 37.1034 10.1037 43.8334 18.2716 43.8334H19.4173C22.3309 49.6734 27.9901 53.8734 34.6864 54.6734L34.0741 60.8234H28.1481C25.9654 60.8234 24.1975 62.6134 24.1975 64.8234V70.8234C24.1975 73.0334 25.9654 74.8234 28.1481 74.8234H51.8518C54.0346 74.8234 55.8025 73.0334 55.8025 70.8234V64.8234C55.8025 62.6134 54.0346 60.8234 51.8518 60.8234H45.9259L45.3136 54.6734C52.0099 53.8634 57.6593 49.6734 60.5827 43.8334H61.7284C69.8963 43.8334 76.5432 37.1034 76.5432 28.8334V16.8334C76.5432 15.1734 75.2197 13.8334 73.5802 13.8334ZM9.38271 28.8334V19.8334H17.2839V34.8334C17.2839 35.8434 17.3827 36.8234 17.521 37.7934C12.9679 37.4034 9.38271 33.5434 9.38271 28.8334ZM70.6173 28.8334C70.6173 33.5434 67.0321 37.4034 62.479 37.7934C62.6173 36.8234 62.716 35.8434 62.716 34.8334V19.8334H70.6173V28.8334Z" fill="#F4D055"/>
<path d="M34.074 20.8334H38.0246V16.8334H41.9752V36.8334H45.9258V40.8334H34.074V36.8334H38.0246V24.8334H34.074V20.8334Z" fill="#252746"/>
</svg>
