<svg width="59" height="59" viewBox="0 0 59 59" fill="none" xmlns="http://www.w3.org/2000/svg">
<rect x="0.5" y="0.751953" width="58" height="58" rx="29" fill="#F4F6F9"/>
<path d="M25.75 37.252C28.5114 37.252 30.75 35.0134 30.75 32.252C30.75 29.4906 28.5114 27.252 25.75 27.252C22.9886 27.252 20.75 29.4906 20.75 32.252C20.75 35.0134 22.9886 37.252 25.75 37.252Z" stroke="black" stroke-width="2" stroke-linecap="round" stroke-linejoin="round"/>
<path d="M17.8438 42.252C18.5533 40.7557 19.6728 39.4914 21.0724 38.6061C22.4719 37.7208 24.094 37.2508 25.75 37.2508C27.406 37.2508 29.0281 37.7208 30.4276 38.6061C31.8272 39.4914 32.9467 40.7557 33.6563 42.252H43.25C43.5815 42.252 43.8995 42.1203 44.1339 41.8859C44.3683 41.6515 44.5 41.3335 44.5 41.002V18.502C44.5 18.1704 44.3683 17.8525 44.1339 17.6181C43.8995 17.3837 43.5815 17.252 43.25 17.252H15.75C15.4185 17.252 15.1005 17.3837 14.8661 17.6181C14.6317 17.8525 14.5 18.1704 14.5 18.502V41.002C14.5 41.3335 14.6317 41.6515 14.8661 41.8859C15.1005 42.1203 15.4185 42.252 15.75 42.252H17.8438Z" stroke="black" stroke-width="2" stroke-linecap="round" stroke-linejoin="round"/>
<path d="M37 37.252H39.5V22.252H19.5V24.752" stroke="black" stroke-width="2" stroke-linecap="round" stroke-linejoin="round"/>
</svg>
