<svg width="59" height="59" viewBox="0 0 59 59" fill="none" xmlns="http://www.w3.org/2000/svg">
<rect x="0.5" y="0.751953" width="58" height="58" rx="29" fill="#F4F6F9"/>
<path d="M43.25 21.002H15.75C15.0596 21.002 14.5 21.5616 14.5 22.252V42.252C14.5 42.9424 15.0596 43.502 15.75 43.502H43.25C43.9404 43.502 44.5 42.9424 44.5 42.252V22.252C44.5 21.5616 43.9404 21.002 43.25 21.002Z" stroke="black" stroke-width="2" stroke-linecap="round" stroke-linejoin="round"/>
<path d="M35.75 21.002V18.502C35.75 17.8389 35.4866 17.203 35.0178 16.7342C34.5489 16.2653 33.913 16.002 33.25 16.002H25.75C25.087 16.002 24.4511 16.2653 23.9822 16.7342C23.5134 17.203 23.25 17.8389 23.25 18.502V21.002" stroke="black" stroke-width="2" stroke-linecap="round" stroke-linejoin="round"/>
<path d="M44.5 29.4863C39.9411 32.1229 34.7664 33.5082 29.5 33.5019C24.2326 33.5156 19.056 32.1298 14.5 29.4863" stroke="black" stroke-width="2" stroke-linecap="round" stroke-linejoin="round"/>
<path d="M27.625 28.502H31.375" stroke="black" stroke-width="2" stroke-linecap="round" stroke-linejoin="round"/>
</svg>
