<svg width="84" height="81" viewBox="0 0 84 81" fill="none" xmlns="http://www.w3.org/2000/svg">
<path d="M6.74072 62.8334V18.8334C6.74072 13.3134 11.3866 8.83337 17.1111 8.83337H33.0089C34.6578 8.83337 36.2444 9.46337 37.4059 10.5934L43.3792 16.3534C44.5511 17.4834 46.1274 18.1134 47.7763 18.1134H66.8785C72.6029 18.1134 77.2489 22.5934 77.2489 28.1134V62.8334C77.2489 68.3534 72.6029 72.8334 66.8785 72.8334H17.1111C11.3866 72.8334 6.74072 68.3534 6.74072 62.8334Z" fill="#78D86B"/>
<path d="M52.3704 50.5734V54.5734H56.5185V50.5734H52.3704Z" fill="#252746"/>
<path d="M44.074 30.8334V38.8334H48.2221V30.8334H44.074Z" fill="#252746"/>
<path d="M35.7778 50.8334V58.8334H39.926V50.8334H35.7778Z" fill="#252746"/>
<path d="M56.5186 46.5734V50.5734H60.6667V46.5734H56.5186Z" fill="#252746"/>
<path d="M60.6667 42.5734V46.5734H64.8149V42.5734H60.6667Z" fill="#252746"/>
<path d="M56.5186 38.5734V42.5734H60.6667V38.5734H56.5186Z" fill="#252746"/>
<path d="M52.3704 34.5734V38.5734H56.5185V34.5734H52.3704Z" fill="#252746"/>
<path d="M39.926 38.8334V50.8334H44.0742V38.8334H39.926Z" fill="#252746"/>
<path d="M31.6296 38.8334V34.8334H27.4814V38.8334H31.6296Z" fill="#252746"/>
<path d="M27.4814 42.8334V38.8334H23.3333V42.8334H27.4814Z" fill="#252746"/>
<path d="M23.3335 46.8334V42.8334H19.1853V46.8334H23.3335Z" fill="#252746"/>
<path d="M27.4814 50.8334V46.8334H23.3333V50.8334H27.4814Z" fill="#252746"/>
<path d="M31.6296 54.8334V50.8334H27.4814V54.8334H31.6296Z" fill="#252746"/>
</svg>
