<svg width="63" height="63" viewBox="0 0 63 63" fill="none" xmlns="http://www.w3.org/2000/svg">
<rect x="0.555664" y="0.555542" width="62.2222" height="62.2222" rx="31.1111" fill="#1B99D4"/>
<path d="M41.251 46.2797C41.4492 43.8995 41.4904 36.313 34.5369 32.9461C37.4289 31.544 39.4289 29.2482 40.4912 26.1061C40.5894 25.8153 40.4334 25.5001 40.1429 25.4019C39.8507 25.3035 39.5371 25.4597 39.4387 25.7502C38.3449 28.9854 36.1536 31.2312 32.9253 32.4253C32.7074 32.5061 32.5626 32.7139 32.5626 32.9464C32.5626 33.1789 32.7074 33.3867 32.9253 33.4675C40.4868 36.2651 40.3347 44.0951 40.1357 46.2797H38.4601C37.8234 39.9096 33.3859 38.052 31.9324 37.6132V34.1565C31.9324 33.8497 31.6837 33.601 31.3769 33.601C31.0701 33.601 30.8213 33.8497 30.8213 34.1565V37.6132C29.3679 38.052 24.9304 39.9096 24.2936 46.2797H22.619C22.5498 45.5109 22.4805 43.9346 22.8176 42.0835C22.8726 41.7816 22.6724 41.4924 22.3705 41.4374C22.0678 41.3842 21.7792 41.5827 21.7244 41.8844C21.3801 43.7746 21.4327 45.4137 21.5032 46.2797C20.5636 46.2473 19.7742 47.0048 19.7761 47.9464C19.7761 48.8655 20.5237 49.6131 21.4428 49.6131H41.311C42.23 49.6131 42.9776 48.8655 42.9776 47.9464C42.9776 46.2797 41.251 46.2797 41.251 46.2797ZM31.3766 38.6091C32.1296 38.7787 36.6783 40.0571 37.3469 46.2797H25.4068C26.0758 40.0542 30.6284 38.7776 31.3766 38.6091ZM41.311 48.502H21.4428C21.1365 48.502 20.8872 48.2527 20.8872 47.9464C20.8872 47.6402 21.1365 47.3909 21.4428 47.3909H41.311C41.6172 47.3909 41.8665 47.6402 41.8665 47.9464C41.8665 48.2527 41.6172 48.502 41.311 48.502Z" fill="white"/>
<path d="M21.505 19.6131C21.3448 21.7097 21.245 29.5454 28.2191 32.9456C25.2842 34.3676 23.269 36.7076 22.2192 39.9172C22.1239 40.2091 22.2829 40.5227 22.5745 40.6182C22.8585 40.7134 23.1805 40.557 23.2755 40.2628C24.3543 36.9634 26.5589 34.6771 29.8285 33.4676C30.0463 33.3867 30.1912 33.1789 30.1912 32.9465C30.1912 32.714 30.0463 32.5062 29.8285 32.4253C22.2674 29.6281 22.4172 21.809 22.6181 19.6131H40.1352C40.2006 20.3615 40.2722 21.9668 39.9356 23.8123C39.8806 24.114 40.0808 24.4034 40.3827 24.4585C40.6775 24.514 40.9753 24.3153 41.0288 24.0114C41.374 22.1183 41.3228 20.4875 41.2508 19.6131C42.1903 19.6454 42.9795 18.8879 42.9776 17.9465C42.9776 17.0274 42.23 16.2798 41.311 16.2798H21.4428C20.5237 16.2798 19.7761 17.0274 19.7761 17.9465C19.7761 19.6764 21.505 19.6131 21.505 19.6131ZM21.4428 17.3909H41.311C41.6172 17.3909 41.8665 17.6402 41.8665 17.9465C41.8665 18.2527 41.6172 18.502 41.311 18.502H21.4428C21.1365 18.502 20.8872 18.2527 20.8872 17.9465C20.8872 17.6402 21.1365 17.3909 21.4428 17.3909Z" fill="white"/>
<path d="M36.4744 24.0985C36.5246 23.6387 36.6407 23.1575 36.8198 22.6681L37.2446 21.5049C37.3053 21.3386 37.2831 21.1533 37.1849 21.006C37.0867 20.8587 36.9242 20.7671 36.7473 20.7592C33.6511 20.6195 31.3562 21.4384 29.8912 23.166C28.8513 22.8231 27.5787 22.6352 26.0068 22.7034C25.8299 22.7112 25.6674 22.8029 25.5692 22.9502C25.471 23.0975 25.4488 23.2828 25.5095 23.4491L25.9346 24.6125C26.1137 25.1016 26.2298 25.5826 26.2797 26.0424C26.3822 26.9818 26.7696 28.7149 28.2114 29.7682C28.9953 30.3409 29.9703 30.6282 31.1232 30.6282C31.657 30.6282 32.2291 30.5663 32.8378 30.4429C33.9514 30.223 34.6096 29.0624 34.28 27.991C35.9207 26.9783 36.3604 25.1423 36.4744 24.0985ZM28.8668 28.8709C27.7695 28.0693 27.467 26.6791 27.3843 25.9222C27.3246 25.3732 27.1879 24.8041 26.9782 24.2309L26.8211 23.8009C31.5871 23.8641 32.8849 26.6442 33.2296 28.3889C31.8111 26.4048 29.6615 25.2623 29.5585 25.2082C29.2878 25.0664 28.9517 25.1708 28.809 25.4423C28.6666 25.7136 28.7713 26.0494 29.0425 26.1921C29.0666 26.2048 31.3101 27.4021 32.548 29.3657C30.977 29.6725 29.7378 29.507 28.8668 28.8709ZM33.9311 26.8822C33.481 25.7695 32.6158 24.4741 30.9673 23.6191C32.0877 22.476 33.7509 21.8829 35.9333 21.8565C35.6695 22.5357 35.4345 23.2972 35.3698 23.9778C35.2849 24.7566 34.9814 26.0817 33.9311 26.8822Z" fill="white"/>
</svg>
