<svg width="34" height="30" viewBox="0 0 34 30" fill="none" xmlns="http://www.w3.org/2000/svg">
<path d="M27.5012 10.1517C27.1531 10.0357 26.8051 9.92615 26.457 9.82302C26.515 9.58455 26.5666 9.34607 26.6182 9.10759C27.4109 5.26619 26.8889 2.17888 25.1293 1.16052C23.4342 0.18728 20.6691 1.19919 17.8719 3.63552C17.5947 3.874 17.324 4.12537 17.0662 4.37673C16.8922 4.20915 16.7117 4.04158 16.5312 3.88044C13.5986 1.27654 10.6596 0.180835 8.9 1.20564C7.21133 2.18533 6.70859 5.09216 7.41758 8.72732C7.48848 9.08826 7.56582 9.44275 7.65605 9.80369C7.24356 9.9197 6.8375 10.0486 6.45723 10.184C3.01543 11.3763 0.546875 13.2584 0.546875 15.2049C0.546875 17.2158 3.17656 19.2332 6.75371 20.4578C7.04375 20.5545 7.33379 20.6511 7.63027 20.7349C7.53359 21.1217 7.4498 21.5019 7.37246 21.8951C6.6957 25.4722 7.22422 28.3082 8.91289 29.2814C10.6531 30.2869 13.5793 29.2556 16.4281 26.7613C16.6537 26.5615 16.8793 26.3552 17.1049 26.1361C17.3885 26.4133 17.685 26.6775 17.9814 26.9353C20.74 29.3072 23.4664 30.2676 25.1486 29.2943C26.8889 28.2888 27.4561 25.2402 26.7213 21.5277C26.6633 21.2441 26.5988 20.9541 26.5279 20.6576C26.7342 20.5996 26.934 20.5351 27.1338 20.4707C30.8527 19.2396 33.5469 17.248 33.5469 15.2049C33.5469 13.2519 31.0074 11.357 27.5012 10.1517ZM18.7807 4.67966C21.1783 2.59138 23.4148 1.77283 24.4332 2.35935C25.5225 2.98455 25.9414 5.51111 25.2582 8.83044C25.2131 9.04958 25.168 9.26228 25.11 9.47497C23.6791 9.15271 22.2289 8.92068 20.7723 8.79177C19.9344 7.59294 19.0191 6.44568 18.0266 5.36931C18.2779 5.13083 18.5229 4.90525 18.7807 4.67966ZM11.3234 18.55C11.6521 19.1107 11.9873 19.6715 12.3418 20.2193C11.3363 20.1097 10.3373 19.9486 9.35117 19.7359C9.63477 18.8078 9.98926 17.8474 10.4018 16.8677C10.6982 17.4349 11.0012 17.9957 11.3234 18.55ZM9.37051 10.7963C10.2986 10.59 11.2848 10.4224 12.3096 10.2935C11.968 10.8285 11.6328 11.3763 11.317 11.9306C11.0012 12.4785 10.6918 13.0392 10.4018 13.6064C9.9957 12.6461 9.6541 11.7051 9.37051 10.7963ZM11.1365 15.2371C11.5619 14.3476 12.026 13.4775 12.5158 12.6203C13.0057 11.7631 13.5342 10.9316 14.0885 10.1131C15.0553 10.0422 16.0414 10.0035 17.0469 10.0035C18.0523 10.0035 19.0449 10.0422 20.0053 10.1131C20.5531 10.9252 21.0752 11.7566 21.5715 12.6074C22.0678 13.4582 22.5318 14.3283 22.9701 15.2113C22.5383 16.1008 22.0742 16.9773 21.5779 17.841C21.0881 18.6982 20.566 19.5297 20.0182 20.3547C19.0578 20.4256 18.0588 20.4578 17.0469 20.4578C16.035 20.4578 15.0553 20.4256 14.1078 20.3676C13.5471 19.549 13.0186 18.7111 12.5223 17.8539C12.026 16.9967 11.5684 16.1265 11.1365 15.2371ZM22.7768 18.5371C23.1055 17.9699 23.4148 17.3963 23.7178 16.8162C24.1303 17.7508 24.4912 18.6982 24.807 19.6715C23.808 19.897 22.7961 20.0711 21.7777 20.1871C22.1258 19.6457 22.4545 19.0914 22.7768 18.5371ZM23.7049 13.6064C23.402 13.0392 23.0926 12.472 22.7703 11.9177C22.4545 11.3699 22.1258 10.8285 21.7842 10.2935C22.8219 10.4224 23.8145 10.5965 24.7426 10.8092C24.4461 11.7631 24.098 12.6912 23.7049 13.6064ZM17.0598 6.35544C17.7365 7.09021 18.3746 7.86365 18.9676 8.66287C17.6914 8.60486 16.4088 8.60486 15.1326 8.66287C15.7643 7.83142 16.4152 7.05798 17.0598 6.35544ZM9.5832 2.40447C10.666 1.77283 13.0701 2.67517 15.6031 4.91814C15.7643 5.05994 15.9254 5.21462 16.093 5.36931C15.0939 6.44568 14.1723 7.59294 13.3279 8.79177C11.8713 8.92068 10.4275 9.14626 8.99668 9.46208C8.91289 9.13337 8.84199 8.79822 8.77109 8.46306C8.16523 5.34353 8.56484 2.99099 9.5832 2.40447ZM8.0041 19.3943C7.7334 19.317 7.46914 19.2332 7.20488 19.1429C5.83203 18.7111 4.27227 18.0279 3.14434 17.132C2.49336 16.6808 2.05508 15.9847 1.93262 15.2049C1.93262 14.0254 3.96934 12.5172 6.9084 11.4924C7.27578 11.3635 7.64961 11.2474 8.02344 11.1379C8.46172 12.5365 8.99023 13.9094 9.60254 15.2371C8.98379 16.5842 8.44883 17.9763 8.0041 19.3943ZM15.5193 25.7107C14.4559 26.684 13.2248 27.4574 11.8842 27.9859C11.1687 28.3275 10.3438 28.3597 9.60898 28.0697C8.58418 27.4767 8.15879 25.2015 8.73887 22.14C8.80977 21.7791 8.88711 21.4181 8.97734 21.0636C10.4211 21.373 11.8777 21.5857 13.3537 21.6953C14.2045 22.9006 15.1391 24.0543 16.1381 25.1371C15.9318 25.3369 15.7256 25.5302 15.5193 25.7107ZM17.0984 24.1445C16.441 23.4355 15.7836 22.6492 15.1455 21.8049C15.7643 21.8306 16.4023 21.8435 17.0469 21.8435C17.7107 21.8435 18.3617 21.8306 19.0063 21.7984C18.4133 22.617 17.7752 23.3968 17.0984 24.1445ZM25.5225 26.0781C25.4645 26.8644 25.0777 27.5992 24.459 28.0955C23.4342 28.6885 21.2492 27.915 18.8902 25.8912C18.6195 25.6592 18.3488 25.4078 18.0717 25.15C19.0578 24.0607 19.9666 22.907 20.7916 21.6953C22.2676 21.5728 23.7371 21.3472 25.1873 21.0185C25.2518 21.2828 25.3098 21.547 25.3613 21.8049C25.6771 23.197 25.7287 24.6472 25.5225 26.0781ZM26.6955 19.1494C26.515 19.2074 26.3346 19.2654 26.1477 19.317C25.6965 17.9119 25.1422 16.539 24.5041 15.2049C25.1229 13.89 25.6449 12.5365 26.0832 11.1508C26.4184 11.2474 26.7406 11.3506 27.05 11.4537C30.0535 12.4849 32.1611 14.0189 32.1611 15.192C32.1611 16.4552 29.9117 18.0859 26.6955 19.1494ZM17.0469 18.1826C18.6775 18.1826 19.9988 16.8613 19.9988 15.2306C19.9988 13.6 18.6775 12.2787 17.0469 12.2787C15.4162 12.2787 14.0949 13.6 14.0949 15.2306C14.0949 16.8613 15.4162 18.1826 17.0469 18.1826Z" fill="#4F419A"/>
</svg>
