<svg width="30" height="33" viewBox="0 0 30 33" fill="none" xmlns="http://www.w3.org/2000/svg">
<path d="M15.0469 32.4729C14.6151 32.4729 14.1768 32.3568 13.7965 32.1377L9.81978 29.7852C9.22681 29.45 9.51685 29.334 9.71021 29.2695C10.503 28.9924 10.6641 28.9344 11.5084 28.451C11.5987 28.3994 11.7147 28.4188 11.8049 28.4768L14.86 30.2879C14.9696 30.3523 15.1243 30.3523 15.2274 30.2879L27.1319 23.4172C27.2415 23.3527 27.3124 23.2238 27.3124 23.0949V9.35352C27.3124 9.21816 27.2415 9.0957 27.1254 9.0248L15.2274 2.16055C15.1178 2.09609 14.9696 2.09609 14.86 2.16055L2.96841 9.03125C2.85239 9.0957 2.78149 9.22461 2.78149 9.35996V23.0949C2.78149 23.2238 2.85239 23.3527 2.96841 23.4107L6.22974 25.2928C8.0022 26.1758 9.08501 25.1381 9.08501 24.0875V10.5266C9.08501 10.3332 9.2397 10.185 9.43306 10.185H10.9413C11.1282 10.185 11.2893 10.3332 11.2893 10.5266V24.0939C11.2893 26.4529 10.0002 27.8064 7.76372 27.8064C7.07407 27.8064 6.53267 27.8064 5.02446 27.0588L1.90493 25.2605C1.13149 24.8158 0.654541 23.9844 0.654541 23.0885V9.35352C0.654541 8.46406 1.13149 7.62617 1.90493 7.18145L13.7965 0.310742C14.5506 -0.114648 15.5497 -0.114648 16.2973 0.310742L28.2018 7.18789C28.9752 7.63262 29.4522 8.46406 29.4522 9.35996V23.0949C29.4522 23.9844 28.9752 24.8158 28.2018 25.267L16.2973 32.1377C15.917 32.3568 15.4852 32.4729 15.0469 32.4729ZM24.6569 18.9312C24.6569 16.3596 22.9166 15.6764 19.2622 15.193C15.5625 14.7031 15.1887 14.4518 15.1887 13.5881C15.1887 12.8727 15.5045 11.9187 18.2438 11.9187C20.6866 11.9187 21.5889 12.4473 21.9627 14.0973C21.995 14.252 22.1368 14.368 22.2979 14.368H23.8448C23.9415 14.368 24.0317 14.3293 24.0961 14.2584C24.1606 14.1875 24.1928 14.0908 24.1864 13.9941C23.9479 11.1518 22.0594 9.83047 18.2438 9.83047C14.8471 9.83047 12.8233 11.2613 12.8233 13.6654C12.8233 16.2693 14.8407 16.9912 18.0956 17.3135C21.995 17.6938 22.2979 18.2674 22.2979 19.0344C22.2979 20.3621 21.228 20.9293 18.7208 20.9293C15.569 20.9293 14.8793 20.1365 14.6473 18.5703C14.6215 18.4027 14.4797 18.2803 14.3057 18.2803H12.7653C12.5719 18.2803 12.4237 18.435 12.4237 18.6219C12.4237 20.6264 13.5129 23.0176 18.7272 23.0176C22.4913 23.0111 24.6569 21.5223 24.6569 18.9312Z" fill="#008000"/>
</svg>
