<svg width="30" height="34" viewBox="0 0 30 34" fill="none" xmlns="http://www.w3.org/2000/svg">
<path d="M29.4844 5.44501V8.39142C29.4844 10.988 23.0176 13.1057 15.0469 13.1057C7.07615 13.1057 0.609375 10.988 0.609375 8.39142V5.44501C0.609375 2.84845 7.07615 0.730713 15.0469 0.730713C23.0176 0.730713 29.4844 2.84845 29.4844 5.44501ZM29.4844 12.0745V18.7039C29.4844 21.3005 23.0176 23.4182 15.0469 23.4182C7.07615 23.4182 0.609375 21.3005 0.609375 18.7039V12.0745C3.71118 14.2106 9.38841 15.2051 15.0469 15.2051C20.7053 15.2051 26.3825 14.2106 29.4844 12.0745ZM29.4844 22.387V29.0164C29.4844 31.613 23.0176 33.7307 15.0469 33.7307C7.07615 33.7307 0.609375 31.613 0.609375 29.0164V22.387C3.71118 24.5231 9.38841 25.5176 15.0469 25.5176C20.7053 25.5176 26.3825 24.5231 29.4844 22.387Z" fill="#008000"/>
</svg>
